<?xml version="1.0" encoding="utf-8" standalone="no"?>
<!DOCTYPE svg PUBLIC "-//W3C//DTD SVG 1.1//EN"
  "http://www.w3.org/Graphics/SVG/1.1/DTD/svg11.dtd">
<!-- Created with matplotlib (https://matplotlib.org/) -->
<svg height="360pt" version="1.1" viewBox="0 0 1080 360" width="1080pt" xmlns="http://www.w3.org/2000/svg" xmlns:xlink="http://www.w3.org/1999/xlink">
 <defs>
  <style type="text/css">
*{stroke-linecap:butt;stroke-linejoin:round;}
  </style>
 </defs>
 <g id="figure_1">
  <g id="patch_1">
   <path d="M 0 360 
L 1080 360 
L 1080 0 
L 0 0 
z
" style="fill:#ffffff;"/>
  </g>
  <g id="axes_1">
   <g id="patch_2">
    <path d="M 135 169.2 
L 972 169.2 
L 972 43.2 
L 135 43.2 
z
" style="fill:#ffffff;"/>
   </g>
   <g id="matplotlib.axis_1">
    <g id="xtick_1">
     <g id="line2d_1">
      <defs>
       <path d="M 0 0 
L 0 3.5 
" id="m86f8dfe59e" style="stroke:#000000;stroke-width:0.8;"/>
      </defs>
      <g>
       <use style="stroke:#000000;stroke-width:0.8;" x="142.532809" xlink:href="#m86f8dfe59e" y="169.2"/>
      </g>
     </g>
     <g id="text_1">
      <!-- 300 -->
      <defs>
       <path d="M 40.578125 39.3125 
Q 47.65625 37.796875 51.625 33 
Q 55.609375 28.21875 55.609375 21.1875 
Q 55.609375 10.40625 48.1875 4.484375 
Q 40.765625 -1.421875 27.09375 -1.421875 
Q 22.515625 -1.421875 17.65625 -0.515625 
Q 12.796875 0.390625 7.625 2.203125 
L 7.625 11.71875 
Q 11.71875 9.328125 16.59375 8.109375 
Q 21.484375 6.890625 26.8125 6.890625 
Q 36.078125 6.890625 40.9375 10.546875 
Q 45.796875 14.203125 45.796875 21.1875 
Q 45.796875 27.640625 41.28125 31.265625 
Q 36.765625 34.90625 28.71875 34.90625 
L 20.21875 34.90625 
L 20.21875 43.015625 
L 29.109375 43.015625 
Q 36.375 43.015625 40.234375 45.921875 
Q 44.09375 48.828125 44.09375 54.296875 
Q 44.09375 59.90625 40.109375 62.90625 
Q 36.140625 65.921875 28.71875 65.921875 
Q 24.65625 65.921875 20.015625 65.03125 
Q 15.375 64.15625 9.8125 62.3125 
L 9.8125 71.09375 
Q 15.4375 72.65625 20.34375 73.4375 
Q 25.25 74.21875 29.59375 74.21875 
Q 40.828125 74.21875 47.359375 69.109375 
Q 53.90625 64.015625 53.90625 55.328125 
Q 53.90625 49.265625 50.4375 45.09375 
Q 46.96875 40.921875 40.578125 39.3125 
z
" id="DejaVuSans-51"/>
       <path d="M 31.78125 66.40625 
Q 24.171875 66.40625 20.328125 58.90625 
Q 16.5 51.421875 16.5 36.375 
Q 16.5 21.390625 20.328125 13.890625 
Q 24.171875 6.390625 31.78125 6.390625 
Q 39.453125 6.390625 43.28125 13.890625 
Q 47.125 21.390625 47.125 36.375 
Q 47.125 51.421875 43.28125 58.90625 
Q 39.453125 66.40625 31.78125 66.40625 
z
M 31.78125 74.21875 
Q 44.046875 74.21875 50.515625 64.515625 
Q 56.984375 54.828125 56.984375 36.375 
Q 56.984375 17.96875 50.515625 8.265625 
Q 44.046875 -1.421875 31.78125 -1.421875 
Q 19.53125 -1.421875 13.0625 8.265625 
Q 6.59375 17.96875 6.59375 36.375 
Q 6.59375 54.828125 13.0625 64.515625 
Q 19.53125 74.21875 31.78125 74.21875 
z
" id="DejaVuSans-48"/>
      </defs>
      <g transform="translate(132.989059 183.798437)scale(0.1 -0.1)">
       <use xlink:href="#DejaVuSans-51"/>
       <use x="63.623047" xlink:href="#DejaVuSans-48"/>
       <use x="127.246094" xlink:href="#DejaVuSans-48"/>
      </g>
     </g>
    </g>
    <g id="xtick_2">
     <g id="line2d_2">
      <g>
       <use style="stroke:#000000;stroke-width:0.8;" x="237.884826" xlink:href="#m86f8dfe59e" y="169.2"/>
      </g>
     </g>
     <g id="text_2">
      <!-- 350 -->
      <defs>
       <path d="M 10.796875 72.90625 
L 49.515625 72.90625 
L 49.515625 64.59375 
L 19.828125 64.59375 
L 19.828125 46.734375 
Q 21.96875 47.46875 24.109375 47.828125 
Q 26.265625 48.1875 28.421875 48.1875 
Q 40.625 48.1875 47.75 41.5 
Q 54.890625 34.8125 54.890625 23.390625 
Q 54.890625 11.625 47.5625 5.09375 
Q 40.234375 -1.421875 26.90625 -1.421875 
Q 22.3125 -1.421875 17.546875 -0.640625 
Q 12.796875 0.140625 7.71875 1.703125 
L 7.71875 11.625 
Q 12.109375 9.234375 16.796875 8.0625 
Q 21.484375 6.890625 26.703125 6.890625 
Q 35.15625 6.890625 40.078125 11.328125 
Q 45.015625 15.765625 45.015625 23.390625 
Q 45.015625 31 40.078125 35.4375 
Q 35.15625 39.890625 26.703125 39.890625 
Q 22.75 39.890625 18.8125 39.015625 
Q 14.890625 38.140625 10.796875 36.28125 
z
" id="DejaVuSans-53"/>
      </defs>
      <g transform="translate(228.341076 183.798437)scale(0.1 -0.1)">
       <use xlink:href="#DejaVuSans-51"/>
       <use x="63.623047" xlink:href="#DejaVuSans-53"/>
       <use x="127.246094" xlink:href="#DejaVuSans-48"/>
      </g>
     </g>
    </g>
    <g id="xtick_3">
     <g id="line2d_3">
      <g>
       <use style="stroke:#000000;stroke-width:0.8;" x="333.236842" xlink:href="#m86f8dfe59e" y="169.2"/>
      </g>
     </g>
     <g id="text_3">
      <!-- 400 -->
      <defs>
       <path d="M 37.796875 64.3125 
L 12.890625 25.390625 
L 37.796875 25.390625 
z
M 35.203125 72.90625 
L 47.609375 72.90625 
L 47.609375 25.390625 
L 58.015625 25.390625 
L 58.015625 17.1875 
L 47.609375 17.1875 
L 47.609375 0 
L 37.796875 0 
L 37.796875 17.1875 
L 4.890625 17.1875 
L 4.890625 26.703125 
z
" id="DejaVuSans-52"/>
      </defs>
      <g transform="translate(323.693092 183.798437)scale(0.1 -0.1)">
       <use xlink:href="#DejaVuSans-52"/>
       <use x="63.623047" xlink:href="#DejaVuSans-48"/>
       <use x="127.246094" xlink:href="#DejaVuSans-48"/>
      </g>
     </g>
    </g>
    <g id="xtick_4">
     <g id="line2d_4">
      <g>
       <use style="stroke:#000000;stroke-width:0.8;" x="428.588859" xlink:href="#m86f8dfe59e" y="169.2"/>
      </g>
     </g>
     <g id="text_4">
      <!-- 450 -->
      <g transform="translate(419.045109 183.798437)scale(0.1 -0.1)">
       <use xlink:href="#DejaVuSans-52"/>
       <use x="63.623047" xlink:href="#DejaVuSans-53"/>
       <use x="127.246094" xlink:href="#DejaVuSans-48"/>
      </g>
     </g>
    </g>
    <g id="xtick_5">
     <g id="line2d_5">
      <g>
       <use style="stroke:#000000;stroke-width:0.8;" x="523.940875" xlink:href="#m86f8dfe59e" y="169.2"/>
      </g>
     </g>
     <g id="text_5">
      <!-- 500 -->
      <g transform="translate(514.397125 183.798437)scale(0.1 -0.1)">
       <use xlink:href="#DejaVuSans-53"/>
       <use x="63.623047" xlink:href="#DejaVuSans-48"/>
       <use x="127.246094" xlink:href="#DejaVuSans-48"/>
      </g>
     </g>
    </g>
    <g id="xtick_6">
     <g id="line2d_6">
      <g>
       <use style="stroke:#000000;stroke-width:0.8;" x="619.292891" xlink:href="#m86f8dfe59e" y="169.2"/>
      </g>
     </g>
     <g id="text_6">
      <!-- 550 -->
      <g transform="translate(609.749141 183.798437)scale(0.1 -0.1)">
       <use xlink:href="#DejaVuSans-53"/>
       <use x="63.623047" xlink:href="#DejaVuSans-53"/>
       <use x="127.246094" xlink:href="#DejaVuSans-48"/>
      </g>
     </g>
    </g>
    <g id="xtick_7">
     <g id="line2d_7">
      <g>
       <use style="stroke:#000000;stroke-width:0.8;" x="714.644908" xlink:href="#m86f8dfe59e" y="169.2"/>
      </g>
     </g>
     <g id="text_7">
      <!-- 600 -->
      <defs>
       <path d="M 33.015625 40.375 
Q 26.375 40.375 22.484375 35.828125 
Q 18.609375 31.296875 18.609375 23.390625 
Q 18.609375 15.53125 22.484375 10.953125 
Q 26.375 6.390625 33.015625 6.390625 
Q 39.65625 6.390625 43.53125 10.953125 
Q 47.40625 15.53125 47.40625 23.390625 
Q 47.40625 31.296875 43.53125 35.828125 
Q 39.65625 40.375 33.015625 40.375 
z
M 52.59375 71.296875 
L 52.59375 62.3125 
Q 48.875 64.0625 45.09375 64.984375 
Q 41.3125 65.921875 37.59375 65.921875 
Q 27.828125 65.921875 22.671875 59.328125 
Q 17.53125 52.734375 16.796875 39.40625 
Q 19.671875 43.65625 24.015625 45.921875 
Q 28.375 48.1875 33.59375 48.1875 
Q 44.578125 48.1875 50.953125 41.515625 
Q 57.328125 34.859375 57.328125 23.390625 
Q 57.328125 12.15625 50.6875 5.359375 
Q 44.046875 -1.421875 33.015625 -1.421875 
Q 20.359375 -1.421875 13.671875 8.265625 
Q 6.984375 17.96875 6.984375 36.375 
Q 6.984375 53.65625 15.1875 63.9375 
Q 23.390625 74.21875 37.203125 74.21875 
Q 40.921875 74.21875 44.703125 73.484375 
Q 48.484375 72.75 52.59375 71.296875 
z
" id="DejaVuSans-54"/>
      </defs>
      <g transform="translate(705.101158 183.798437)scale(0.1 -0.1)">
       <use xlink:href="#DejaVuSans-54"/>
       <use x="63.623047" xlink:href="#DejaVuSans-48"/>
       <use x="127.246094" xlink:href="#DejaVuSans-48"/>
      </g>
     </g>
    </g>
    <g id="xtick_8">
     <g id="line2d_8">
      <g>
       <use style="stroke:#000000;stroke-width:0.8;" x="809.996924" xlink:href="#m86f8dfe59e" y="169.2"/>
      </g>
     </g>
     <g id="text_8">
      <!-- 650 -->
      <g transform="translate(800.453174 183.798437)scale(0.1 -0.1)">
       <use xlink:href="#DejaVuSans-54"/>
       <use x="63.623047" xlink:href="#DejaVuSans-53"/>
       <use x="127.246094" xlink:href="#DejaVuSans-48"/>
      </g>
     </g>
    </g>
    <g id="xtick_9">
     <g id="line2d_9">
      <g>
       <use style="stroke:#000000;stroke-width:0.8;" x="905.348941" xlink:href="#m86f8dfe59e" y="169.2"/>
      </g>
     </g>
     <g id="text_9">
      <!-- 700 -->
      <defs>
       <path d="M 8.203125 72.90625 
L 55.078125 72.90625 
L 55.078125 68.703125 
L 28.609375 0 
L 18.3125 0 
L 43.21875 64.59375 
L 8.203125 64.59375 
z
" id="DejaVuSans-55"/>
      </defs>
      <g transform="translate(895.805191 183.798437)scale(0.1 -0.1)">
       <use xlink:href="#DejaVuSans-55"/>
       <use x="63.623047" xlink:href="#DejaVuSans-48"/>
       <use x="127.246094" xlink:href="#DejaVuSans-48"/>
      </g>
     </g>
    </g>
   </g>
   <g id="matplotlib.axis_2">
    <g id="ytick_1">
     <g id="line2d_10">
      <defs>
       <path d="M 0 0 
L -3.5 0 
" id="m5883d7e5ea" style="stroke:#000000;stroke-width:0.8;"/>
      </defs>
      <g>
       <use style="stroke:#000000;stroke-width:0.8;" x="135" xlink:href="#m5883d7e5ea" y="154.044197"/>
      </g>
     </g>
     <g id="text_10">
      <!-- 200 -->
      <defs>
       <path d="M 19.1875 8.296875 
L 53.609375 8.296875 
L 53.609375 0 
L 7.328125 0 
L 7.328125 8.296875 
Q 12.9375 14.109375 22.625 23.890625 
Q 32.328125 33.6875 34.8125 36.53125 
Q 39.546875 41.84375 41.421875 45.53125 
Q 43.3125 49.21875 43.3125 52.78125 
Q 43.3125 58.59375 39.234375 62.25 
Q 35.15625 65.921875 28.609375 65.921875 
Q 23.96875 65.921875 18.8125 64.3125 
Q 13.671875 62.703125 7.8125 59.421875 
L 7.8125 69.390625 
Q 13.765625 71.78125 18.9375 73 
Q 24.125 74.21875 28.421875 74.21875 
Q 39.75 74.21875 46.484375 68.546875 
Q 53.21875 62.890625 53.21875 53.421875 
Q 53.21875 48.921875 51.53125 44.890625 
Q 49.859375 40.875 45.40625 35.40625 
Q 44.1875 33.984375 37.640625 27.21875 
Q 31.109375 20.453125 19.1875 8.296875 
z
" id="DejaVuSans-50"/>
      </defs>
      <g transform="translate(108.9125 157.843416)scale(0.1 -0.1)">
       <use xlink:href="#DejaVuSans-50"/>
       <use x="63.623047" xlink:href="#DejaVuSans-48"/>
       <use x="127.246094" xlink:href="#DejaVuSans-48"/>
      </g>
     </g>
    </g>
    <g id="ytick_2">
     <g id="line2d_11">
      <g>
       <use style="stroke:#000000;stroke-width:0.8;" x="135" xlink:href="#m5883d7e5ea" y="128.329031"/>
      </g>
     </g>
     <g id="text_11">
      <!-- 250 -->
      <g transform="translate(108.9125 132.12825)scale(0.1 -0.1)">
       <use xlink:href="#DejaVuSans-50"/>
       <use x="63.623047" xlink:href="#DejaVuSans-53"/>
       <use x="127.246094" xlink:href="#DejaVuSans-48"/>
      </g>
     </g>
    </g>
    <g id="ytick_3">
     <g id="line2d_12">
      <g>
       <use style="stroke:#000000;stroke-width:0.8;" x="135" xlink:href="#m5883d7e5ea" y="102.613865"/>
      </g>
     </g>
     <g id="text_12">
      <!-- 300 -->
      <g transform="translate(108.9125 106.413084)scale(0.1 -0.1)">
       <use xlink:href="#DejaVuSans-51"/>
       <use x="63.623047" xlink:href="#DejaVuSans-48"/>
       <use x="127.246094" xlink:href="#DejaVuSans-48"/>
      </g>
     </g>
    </g>
    <g id="ytick_4">
     <g id="line2d_13">
      <g>
       <use style="stroke:#000000;stroke-width:0.8;" x="135" xlink:href="#m5883d7e5ea" y="76.898699"/>
      </g>
     </g>
     <g id="text_13">
      <!-- 350 -->
      <g transform="translate(108.9125 80.697918)scale(0.1 -0.1)">
       <use xlink:href="#DejaVuSans-51"/>
       <use x="63.623047" xlink:href="#DejaVuSans-53"/>
       <use x="127.246094" xlink:href="#DejaVuSans-48"/>
      </g>
     </g>
    </g>
    <g id="ytick_5">
     <g id="line2d_14">
      <g>
       <use style="stroke:#000000;stroke-width:0.8;" x="135" xlink:href="#m5883d7e5ea" y="51.183534"/>
      </g>
     </g>
     <g id="text_14">
      <!-- 400 -->
      <g transform="translate(108.9125 54.982752)scale(0.1 -0.1)">
       <use xlink:href="#DejaVuSans-52"/>
       <use x="63.623047" xlink:href="#DejaVuSans-48"/>
       <use x="127.246094" xlink:href="#DejaVuSans-48"/>
      </g>
     </g>
    </g>
   </g>
   <g id="line2d_15">
    <path clip-path="url(#p4484f73ffe)" d="M 173.045455 140.649623 
L 174.952495 150.893147 
L 176.859535 147.884493 
L 178.766576 145.612953 
L 180.673616 135.399265 
L 182.580656 138.407598 
L 184.487697 134.661171 
L 186.394737 125.95956 
L 188.301777 134.150391 
L 190.208817 126.389925 
L 192.115858 120.457732 
L 194.022898 132.822946 
L 195.929938 125.348173 
L 197.836979 114.139985 
L 199.744019 128.012088 
L 201.651059 124.050134 
L 203.5581 149.806131 
L 205.46514 141.169443 
L 207.37218 139.768788 
L 209.279221 137.58817 
L 211.186261 128.520647 
L 213.093301 150.223154 
L 215.000342 163.472727 
L 216.907382 153.924826 
L 218.814422 152.763257 
L 220.721463 132.448174 
L 222.628503 159.478252 
L 224.535543 153.087121 
L 226.442584 142.212592 
L 228.349624 129.901738 
L 230.256664 129.482454 
L 232.163705 137.858051 
L 234.070745 146.915105 
L 235.977785 139.36815 
L 237.884826 133.429514 
L 239.791866 134.344558 
L 241.698906 138.398337 
L 243.605947 125.951351 
L 245.512987 130.527981 
L 247.420027 141.146151 
L 249.327068 125.191825 
L 251.234108 127.182898 
L 253.141148 117.044336 
L 255.048189 128.062219 
L 256.955229 126.493239 
L 258.862269 127.812326 
L 260.76931 108.325617 
L 262.67635 99.706705 
L 264.58339 101.601472 
L 266.490431 98.060065 
L 268.397471 105.277435 
L 270.304511 119.507618 
L 272.211552 111.644591 
L 274.118592 127.690107 
L 276.025632 124.088854 
L 277.932673 111.836638 
L 279.839713 120.120692 
L 281.746753 124.914505 
L 283.653794 125.407392 
L 285.560834 128.496617 
L 287.467874 135.294986 
L 289.374915 138.261812 
L 291.281955 130.161017 
L 293.188995 132.187106 
L 295.096036 139.047526 
L 297.003076 119.065529 
L 298.910116 141.229407 
L 300.817157 131.973635 
L 302.724197 131.255402 
L 304.631237 129.949562 
L 306.538278 123.839785 
L 308.445318 127.002763 
L 310.352358 110.066461 
L 312.259398 119.145339 
L 314.166439 112.592492 
L 316.073479 112.490677 
L 317.980519 111.425108 
L 319.88756 103.462102 
L 321.7946 109.832538 
L 323.70164 114.116285 
L 325.608681 111.478754 
L 327.515721 110.168825 
L 329.422761 129.400525 
L 331.329802 128.062902 
L 333.236842 136.486698 
L 335.143882 120.560223 
L 337.050923 132.009184 
L 338.957963 126.619806 
L 340.865003 126.102662 
L 342.772044 130.552834 
L 344.679084 144.381736 
L 346.586124 134.478909 
L 348.493165 136.856047 
L 350.400205 133.393172 
L 352.307245 129.500826 
L 354.214286 118.063117 
L 356.121326 110.811139 
L 358.028366 114.320748 
L 359.935407 76.051938 
L 361.842447 80.395501 
L 363.749487 80.629674 
L 365.656528 78.772121 
L 367.563568 79.244926 
L 369.470608 75.65604 
L 371.377649 80.690572 
L 373.284689 56.821502 
L 375.191729 90.916541 
L 377.09877 83.256548 
L 379.00581 96.692612 
L 380.91285 90.826293 
L 382.819891 108.778756 
L 384.726931 103.260605 
L 386.633971 106.91155 
L 388.541012 106.024656 
L 390.448052 117.935311 
L 392.355092 124.436693 
L 394.262133 115.918497 
L 396.169173 115.465861 
L 398.076213 121.818499 
L 399.983254 116.11676 
L 401.890294 132.205603 
L 403.797334 131.293958 
L 405.704375 128.836523 
L 407.611415 131.984731 
L 409.518455 127.821932 
L 411.425496 125.739347 
L 413.332536 113.763 
L 415.239576 127.133222 
L 417.146617 125.717601 
L 419.053657 130.449559 
L 420.960697 127.035174 
L 422.867738 119.991206 
L 424.774778 132.185301 
L 426.681818 135.773057 
L 428.588859 136.984011 
L 430.495899 126.612782 
L 432.402939 128.196892 
L 434.309979 120.361505 
L 436.21702 132.440876 
L 438.12406 131.524388 
L 440.0311 128.272442 
L 441.938141 104.470446 
L 443.845181 116.433648 
L 445.752221 125.889033 
L 447.659262 112.680731 
L 449.566302 109.99613 
L 451.473342 122.539242 
L 453.380383 118.545748 
L 455.287423 122.213376 
L 457.194463 142.993205 
L 459.101504 132.572214 
L 461.008544 140.327548 
L 462.915584 128.416524 
L 464.822625 145.50628 
L 466.729665 133.440046 
L 468.636705 138.164352 
L 470.543746 144.622062 
L 472.450786 142.166973 
L 474.357826 126.694845 
L 476.264867 134.060065 
L 478.171907 127.398551 
L 480.078947 116.215091 
L 481.985988 118.177144 
L 483.893028 113.219582 
L 485.800068 112.094638 
L 487.707109 116.931361 
L 489.614149 116.568863 
L 491.521189 127.558196 
L 493.42823 121.614491 
L 495.33527 126.243613 
L 497.24231 118.180675 
L 499.149351 131.556783 
L 502.963431 137.735878 
L 504.870472 131.242721 
L 506.777512 135.591258 
L 508.684552 131.279754 
L 510.591593 147.65681 
L 512.498633 135.899153 
L 514.405673 148.618515 
L 516.312714 140.990517 
L 518.219754 149.421745 
L 520.126794 146.454927 
L 522.033835 127.87878 
L 523.940875 146.487024 
L 525.847915 133.159948 
L 527.754956 121.149408 
L 529.661996 132.973888 
L 531.569036 124.408002 
L 533.476077 128.652221 
L 535.383117 120.392205 
L 537.290157 100.844833 
L 539.197198 92.780357 
L 541.104238 76.402571 
L 543.011278 86.808895 
L 544.918319 86.680225 
L 546.825359 103.627561 
L 548.732399 106.84541 
L 550.63944 93.869328 
L 552.54648 98.155492 
L 554.45352 128.323569 
L 556.36056 115.88188 
L 558.267601 122.594662 
L 560.174641 100.300693 
L 562.081681 116.242636 
L 563.988722 105.63389 
L 565.895762 123.598847 
L 567.802802 123.603618 
L 569.709843 112.906288 
L 571.616883 116.869585 
L 573.523923 113.604368 
L 575.430964 110.058283 
L 577.338004 128.89199 
L 579.245044 125.206908 
L 581.152085 111.856132 
L 583.059125 120.146667 
L 584.966165 114.109348 
L 586.873206 127.597858 
L 588.780246 123.925356 
L 590.687286 126.190445 
L 594.501367 140.439769 
L 596.408407 133.812471 
L 600.222488 144.788699 
L 602.129528 114.302745 
L 604.036569 99.446791 
L 605.943609 100.208844 
L 607.850649 75.371485 
L 609.75769 79.169039 
L 611.66473 72.157764 
L 613.57177 73.994097 
L 615.478811 73.637783 
L 617.385851 99.297403 
L 619.292891 116.040811 
L 621.199932 109.749918 
L 623.106972 87.229435 
L 625.014012 87.108832 
L 626.921053 64.40812 
L 628.828093 61.325549 
L 630.735133 73.592392 
L 632.642174 63.078728 
L 634.549214 68.397188 
L 636.456254 70.764336 
L 638.363295 85.964394 
L 640.270335 67.542595 
L 642.177375 83.406266 
L 644.084416 77.344744 
L 645.991456 68.671071 
L 647.898496 83.437028 
L 649.805537 89.738562 
L 651.712577 75.735459 
L 653.619617 97.411959 
L 655.526658 93.281005 
L 657.433698 94.259371 
L 659.340738 114.087626 
L 661.247779 103.45948 
L 663.154819 111.400576 
L 665.061859 104.417144 
L 668.87594 88.423862 
L 670.78298 99.786045 
L 672.690021 112.81491 
L 674.597061 114.001568 
L 676.504101 123.536176 
L 678.411141 115.932419 
L 680.318182 126.855031 
L 682.225222 117.01982 
L 684.132262 103.457314 
L 686.039303 115.164417 
L 687.946343 112.220121 
L 689.853383 115.189875 
L 691.760424 114.70409 
L 693.667464 127.0019 
L 695.574504 119.731668 
L 697.481545 140.368756 
L 699.388585 139.916355 
L 705.109706 109.673811 
L 707.016746 88.063059 
L 708.923787 100.475162 
L 710.830827 101.093933 
L 712.737867 98.307831 
L 714.644908 105.757459 
L 716.551948 111.462447 
L 718.458988 103.214665 
L 720.366029 113.960415 
L 722.273069 121.846263 
L 724.180109 125.007719 
L 726.08715 114.789566 
L 727.99419 110.682516 
L 729.90123 117.458849 
L 731.808271 114.772427 
L 733.715311 127.017948 
L 735.622351 123.82635 
L 737.529392 118.334505 
L 739.436432 119.271341 
L 741.343472 127.307825 
L 743.250513 128.260545 
L 745.157553 112.136073 
L 747.064593 121.630359 
L 748.971634 116.466953 
L 750.878674 110.615184 
L 752.785714 107.588347 
L 754.692755 75.417723 
L 756.599795 71.999932 
L 758.506835 81.284764 
L 760.413876 71.530141 
L 762.320916 85.634416 
L 764.227956 80.664314 
L 766.134997 81.766374 
L 768.042037 78.344832 
L 769.949077 99.318231 
L 771.856118 98.166824 
L 773.763158 87.679042 
L 775.670198 126.398212 
L 777.577239 109.880048 
L 779.484279 108.602419 
L 781.391319 115.443165 
L 783.29836 125.420019 
L 785.2054 110.281266 
L 787.11244 122.813015 
L 789.019481 122.512403 
L 790.926521 95.231192 
L 792.833561 93.031011 
L 794.740602 91.881503 
L 796.647642 84.425957 
L 798.554682 69.257054 
L 800.461722 57.026028 
L 802.368763 66.116552 
L 804.275803 48.927273 
L 806.182843 54.662065 
L 808.089884 66.914438 
L 809.996924 71.577823 
L 811.903964 68.779556 
L 813.811005 72.899508 
L 815.718045 90.328721 
L 817.625085 78.646511 
L 819.532126 88.351522 
L 821.439166 107.72849 
L 823.346206 103.644214 
L 825.253247 78.231387 
L 827.160287 78.306112 
L 829.067327 71.314268 
L 830.974368 75.684465 
L 832.881408 81.990409 
L 834.788448 86.014148 
L 836.695489 90.715139 
L 838.602529 93.271243 
L 840.509569 78.516052 
L 842.41661 77.902194 
L 844.32365 87.262049 
L 846.23069 83.739037 
L 848.137731 89.444119 
L 850.044771 98.957019 
L 851.951811 103.122518 
L 853.858852 110.363745 
L 855.765892 90.973044 
L 857.672932 98.997293 
L 859.579973 89.593224 
L 861.487013 111.689997 
L 863.394053 115.705716 
L 865.301094 117.896559 
L 867.208134 114.969905 
L 869.115174 103.569395 
L 871.022215 122.322286 
L 872.929255 119.639396 
L 874.836295 112.84707 
L 876.743336 121.576901 
L 878.650376 103.114937 
L 880.557416 95.602229 
L 882.464457 102.197014 
L 884.371497 102.571441 
L 886.278537 103.250545 
L 888.185578 91.000134 
L 890.092618 82.677204 
L 891.999658 99.3435 
L 893.906699 100.228542 
L 895.813739 124.846136 
L 897.720779 122.247388 
L 899.62782 113.537192 
L 901.53486 127.944606 
L 903.4419 120.396835 
L 905.348941 119.010485 
L 907.255981 115.335417 
L 909.163021 115.771934 
L 911.070062 105.017882 
L 912.977102 89.617724 
L 914.884142 100.252509 
L 916.791183 99.354581 
L 918.698223 91.625827 
L 920.605263 95.010266 
L 922.512303 99.767885 
L 924.419344 108.970066 
L 926.326384 92.964337 
L 928.233424 119.077551 
L 930.140465 103.848112 
L 932.047505 115.747528 
L 933.954545 123.098716 
L 933.954545 123.098716 
" style="fill:none;stroke:#ff00ff;stroke-linecap:square;"/>
   </g>
   <g id="patch_3">
    <path d="M 135 169.2 
L 135 43.2 
" style="fill:none;stroke:#000000;stroke-linecap:square;stroke-linejoin:miter;stroke-width:0.8;"/>
   </g>
   <g id="patch_4">
    <path d="M 972 169.2 
L 972 43.2 
" style="fill:none;stroke:#000000;stroke-linecap:square;stroke-linejoin:miter;stroke-width:0.8;"/>
   </g>
   <g id="patch_5">
    <path d="M 135 169.2 
L 972 169.2 
" style="fill:none;stroke:#000000;stroke-linecap:square;stroke-linejoin:miter;stroke-width:0.8;"/>
   </g>
   <g id="patch_6">
    <path d="M 135 43.2 
L 972 43.2 
" style="fill:none;stroke:#000000;stroke-linecap:square;stroke-linejoin:miter;stroke-width:0.8;"/>
   </g>
  </g>
  <g id="axes_2">
   <g id="patch_7">
    <path d="M 135 320.4 
L 972 320.4 
L 972 194.4 
L 135 194.4 
z
" style="fill:#ffffff;"/>
   </g>
   <g id="matplotlib.axis_3">
    <g id="xtick_10">
     <g id="line2d_16">
      <g>
       <use style="stroke:#000000;stroke-width:0.8;" x="142.532809" xlink:href="#m86f8dfe59e" y="320.4"/>
      </g>
     </g>
     <g id="text_15">
      <!-- 300 -->
      <g transform="translate(132.989059 334.998438)scale(0.1 -0.1)">
       <use xlink:href="#DejaVuSans-51"/>
       <use x="63.623047" xlink:href="#DejaVuSans-48"/>
       <use x="127.246094" xlink:href="#DejaVuSans-48"/>
      </g>
     </g>
    </g>
    <g id="xtick_11">
     <g id="line2d_17">
      <g>
       <use style="stroke:#000000;stroke-width:0.8;" x="237.884826" xlink:href="#m86f8dfe59e" y="320.4"/>
      </g>
     </g>
     <g id="text_16">
      <!-- 350 -->
      <g transform="translate(228.341076 334.998438)scale(0.1 -0.1)">
       <use xlink:href="#DejaVuSans-51"/>
       <use x="63.623047" xlink:href="#DejaVuSans-53"/>
       <use x="127.246094" xlink:href="#DejaVuSans-48"/>
      </g>
     </g>
    </g>
    <g id="xtick_12">
     <g id="line2d_18">
      <g>
       <use style="stroke:#000000;stroke-width:0.8;" x="333.236842" xlink:href="#m86f8dfe59e" y="320.4"/>
      </g>
     </g>
     <g id="text_17">
      <!-- 400 -->
      <g transform="translate(323.693092 334.998438)scale(0.1 -0.1)">
       <use xlink:href="#DejaVuSans-52"/>
       <use x="63.623047" xlink:href="#DejaVuSans-48"/>
       <use x="127.246094" xlink:href="#DejaVuSans-48"/>
      </g>
     </g>
    </g>
    <g id="xtick_13">
     <g id="line2d_19">
      <g>
       <use style="stroke:#000000;stroke-width:0.8;" x="428.588859" xlink:href="#m86f8dfe59e" y="320.4"/>
      </g>
     </g>
     <g id="text_18">
      <!-- 450 -->
      <g transform="translate(419.045109 334.998438)scale(0.1 -0.1)">
       <use xlink:href="#DejaVuSans-52"/>
       <use x="63.623047" xlink:href="#DejaVuSans-53"/>
       <use x="127.246094" xlink:href="#DejaVuSans-48"/>
      </g>
     </g>
    </g>
    <g id="xtick_14">
     <g id="line2d_20">
      <g>
       <use style="stroke:#000000;stroke-width:0.8;" x="523.940875" xlink:href="#m86f8dfe59e" y="320.4"/>
      </g>
     </g>
     <g id="text_19">
      <!-- 500 -->
      <g transform="translate(514.397125 334.998438)scale(0.1 -0.1)">
       <use xlink:href="#DejaVuSans-53"/>
       <use x="63.623047" xlink:href="#DejaVuSans-48"/>
       <use x="127.246094" xlink:href="#DejaVuSans-48"/>
      </g>
     </g>
    </g>
    <g id="xtick_15">
     <g id="line2d_21">
      <g>
       <use style="stroke:#000000;stroke-width:0.8;" x="619.292891" xlink:href="#m86f8dfe59e" y="320.4"/>
      </g>
     </g>
     <g id="text_20">
      <!-- 550 -->
      <g transform="translate(609.749141 334.998438)scale(0.1 -0.1)">
       <use xlink:href="#DejaVuSans-53"/>
       <use x="63.623047" xlink:href="#DejaVuSans-53"/>
       <use x="127.246094" xlink:href="#DejaVuSans-48"/>
      </g>
     </g>
    </g>
    <g id="xtick_16">
     <g id="line2d_22">
      <g>
       <use style="stroke:#000000;stroke-width:0.8;" x="714.644908" xlink:href="#m86f8dfe59e" y="320.4"/>
      </g>
     </g>
     <g id="text_21">
      <!-- 600 -->
      <g transform="translate(705.101158 334.998438)scale(0.1 -0.1)">
       <use xlink:href="#DejaVuSans-54"/>
       <use x="63.623047" xlink:href="#DejaVuSans-48"/>
       <use x="127.246094" xlink:href="#DejaVuSans-48"/>
      </g>
     </g>
    </g>
    <g id="xtick_17">
     <g id="line2d_23">
      <g>
       <use style="stroke:#000000;stroke-width:0.8;" x="809.996924" xlink:href="#m86f8dfe59e" y="320.4"/>
      </g>
     </g>
     <g id="text_22">
      <!-- 650 -->
      <g transform="translate(800.453174 334.998438)scale(0.1 -0.1)">
       <use xlink:href="#DejaVuSans-54"/>
       <use x="63.623047" xlink:href="#DejaVuSans-53"/>
       <use x="127.246094" xlink:href="#DejaVuSans-48"/>
      </g>
     </g>
    </g>
    <g id="xtick_18">
     <g id="line2d_24">
      <g>
       <use style="stroke:#000000;stroke-width:0.8;" x="905.348941" xlink:href="#m86f8dfe59e" y="320.4"/>
      </g>
     </g>
     <g id="text_23">
      <!-- 700 -->
      <g transform="translate(895.805191 334.998438)scale(0.1 -0.1)">
       <use xlink:href="#DejaVuSans-55"/>
       <use x="63.623047" xlink:href="#DejaVuSans-48"/>
       <use x="127.246094" xlink:href="#DejaVuSans-48"/>
      </g>
     </g>
    </g>
    <g id="text_24">
     <!-- # of frames -->
     <defs>
      <path d="M 51.125 44 
L 36.921875 44 
L 32.8125 27.6875 
L 47.125 27.6875 
z
M 43.796875 71.78125 
L 38.71875 51.515625 
L 52.984375 51.515625 
L 58.109375 71.78125 
L 65.921875 71.78125 
L 60.890625 51.515625 
L 76.125 51.515625 
L 76.125 44 
L 58.984375 44 
L 54.984375 27.6875 
L 70.515625 27.6875 
L 70.515625 20.21875 
L 53.078125 20.21875 
L 48 0 
L 40.1875 0 
L 45.21875 20.21875 
L 30.90625 20.21875 
L 25.875 0 
L 18.015625 0 
L 23.09375 20.21875 
L 7.71875 20.21875 
L 7.71875 27.6875 
L 24.90625 27.6875 
L 29 44 
L 13.28125 44 
L 13.28125 51.515625 
L 30.90625 51.515625 
L 35.890625 71.78125 
z
" id="DejaVuSans-35"/>
      <path id="DejaVuSans-32"/>
      <path d="M 30.609375 48.390625 
Q 23.390625 48.390625 19.1875 42.75 
Q 14.984375 37.109375 14.984375 27.296875 
Q 14.984375 17.484375 19.15625 11.84375 
Q 23.34375 6.203125 30.609375 6.203125 
Q 37.796875 6.203125 41.984375 11.859375 
Q 46.1875 17.53125 46.1875 27.296875 
Q 46.1875 37.015625 41.984375 42.703125 
Q 37.796875 48.390625 30.609375 48.390625 
z
M 30.609375 56 
Q 42.328125 56 49.015625 48.375 
Q 55.71875 40.765625 55.71875 27.296875 
Q 55.71875 13.875 49.015625 6.21875 
Q 42.328125 -1.421875 30.609375 -1.421875 
Q 18.84375 -1.421875 12.171875 6.21875 
Q 5.515625 13.875 5.515625 27.296875 
Q 5.515625 40.765625 12.171875 48.375 
Q 18.84375 56 30.609375 56 
z
" id="DejaVuSans-111"/>
      <path d="M 37.109375 75.984375 
L 37.109375 68.5 
L 28.515625 68.5 
Q 23.6875 68.5 21.796875 66.546875 
Q 19.921875 64.59375 19.921875 59.515625 
L 19.921875 54.6875 
L 34.71875 54.6875 
L 34.71875 47.703125 
L 19.921875 47.703125 
L 19.921875 0 
L 10.890625 0 
L 10.890625 47.703125 
L 2.296875 47.703125 
L 2.296875 54.6875 
L 10.890625 54.6875 
L 10.890625 58.5 
Q 10.890625 67.625 15.140625 71.796875 
Q 19.390625 75.984375 28.609375 75.984375 
z
" id="DejaVuSans-102"/>
      <path d="M 41.109375 46.296875 
Q 39.59375 47.171875 37.8125 47.578125 
Q 36.03125 48 33.890625 48 
Q 26.265625 48 22.1875 43.046875 
Q 18.109375 38.09375 18.109375 28.8125 
L 18.109375 0 
L 9.078125 0 
L 9.078125 54.6875 
L 18.109375 54.6875 
L 18.109375 46.1875 
Q 20.953125 51.171875 25.484375 53.578125 
Q 30.03125 56 36.53125 56 
Q 37.453125 56 38.578125 55.875 
Q 39.703125 55.765625 41.0625 55.515625 
z
" id="DejaVuSans-114"/>
      <path d="M 34.28125 27.484375 
Q 23.390625 27.484375 19.1875 25 
Q 14.984375 22.515625 14.984375 16.5 
Q 14.984375 11.71875 18.140625 8.90625 
Q 21.296875 6.109375 26.703125 6.109375 
Q 34.1875 6.109375 38.703125 11.40625 
Q 43.21875 16.703125 43.21875 25.484375 
L 43.21875 27.484375 
z
M 52.203125 31.203125 
L 52.203125 0 
L 43.21875 0 
L 43.21875 8.296875 
Q 40.140625 3.328125 35.546875 0.953125 
Q 30.953125 -1.421875 24.3125 -1.421875 
Q 15.921875 -1.421875 10.953125 3.296875 
Q 6 8.015625 6 15.921875 
Q 6 25.140625 12.171875 29.828125 
Q 18.359375 34.515625 30.609375 34.515625 
L 43.21875 34.515625 
L 43.21875 35.40625 
Q 43.21875 41.609375 39.140625 45 
Q 35.0625 48.390625 27.6875 48.390625 
Q 23 48.390625 18.546875 47.265625 
Q 14.109375 46.140625 10.015625 43.890625 
L 10.015625 52.203125 
Q 14.9375 54.109375 19.578125 55.046875 
Q 24.21875 56 28.609375 56 
Q 40.484375 56 46.34375 49.84375 
Q 52.203125 43.703125 52.203125 31.203125 
z
" id="DejaVuSans-97"/>
      <path d="M 52 44.1875 
Q 55.375 50.25 60.0625 53.125 
Q 64.75 56 71.09375 56 
Q 79.640625 56 84.28125 50.015625 
Q 88.921875 44.046875 88.921875 33.015625 
L 88.921875 0 
L 79.890625 0 
L 79.890625 32.71875 
Q 79.890625 40.578125 77.09375 44.375 
Q 74.3125 48.1875 68.609375 48.1875 
Q 61.625 48.1875 57.5625 43.546875 
Q 53.515625 38.921875 53.515625 30.90625 
L 53.515625 0 
L 44.484375 0 
L 44.484375 32.71875 
Q 44.484375 40.625 41.703125 44.40625 
Q 38.921875 48.1875 33.109375 48.1875 
Q 26.21875 48.1875 22.15625 43.53125 
Q 18.109375 38.875 18.109375 30.90625 
L 18.109375 0 
L 9.078125 0 
L 9.078125 54.6875 
L 18.109375 54.6875 
L 18.109375 46.1875 
Q 21.1875 51.21875 25.484375 53.609375 
Q 29.78125 56 35.6875 56 
Q 41.65625 56 45.828125 52.96875 
Q 50 49.953125 52 44.1875 
z
" id="DejaVuSans-109"/>
      <path d="M 56.203125 29.59375 
L 56.203125 25.203125 
L 14.890625 25.203125 
Q 15.484375 15.921875 20.484375 11.0625 
Q 25.484375 6.203125 34.421875 6.203125 
Q 39.59375 6.203125 44.453125 7.46875 
Q 49.3125 8.734375 54.109375 11.28125 
L 54.109375 2.78125 
Q 49.265625 0.734375 44.1875 -0.34375 
Q 39.109375 -1.421875 33.890625 -1.421875 
Q 20.796875 -1.421875 13.15625 6.1875 
Q 5.515625 13.8125 5.515625 26.8125 
Q 5.515625 40.234375 12.765625 48.109375 
Q 20.015625 56 32.328125 56 
Q 43.359375 56 49.78125 48.890625 
Q 56.203125 41.796875 56.203125 29.59375 
z
M 47.21875 32.234375 
Q 47.125 39.59375 43.09375 43.984375 
Q 39.0625 48.390625 32.421875 48.390625 
Q 24.90625 48.390625 20.390625 44.140625 
Q 15.875 39.890625 15.1875 32.171875 
z
" id="DejaVuSans-101"/>
      <path d="M 44.28125 53.078125 
L 44.28125 44.578125 
Q 40.484375 46.53125 36.375 47.5 
Q 32.28125 48.484375 27.875 48.484375 
Q 21.1875 48.484375 17.84375 46.4375 
Q 14.5 44.390625 14.5 40.28125 
Q 14.5 37.15625 16.890625 35.375 
Q 19.28125 33.59375 26.515625 31.984375 
L 29.59375 31.296875 
Q 39.15625 29.25 43.1875 25.515625 
Q 47.21875 21.78125 47.21875 15.09375 
Q 47.21875 7.46875 41.1875 3.015625 
Q 35.15625 -1.421875 24.609375 -1.421875 
Q 20.21875 -1.421875 15.453125 -0.5625 
Q 10.6875 0.296875 5.421875 2 
L 5.421875 11.28125 
Q 10.40625 8.6875 15.234375 7.390625 
Q 20.0625 6.109375 24.8125 6.109375 
Q 31.15625 6.109375 34.5625 8.28125 
Q 37.984375 10.453125 37.984375 14.40625 
Q 37.984375 18.0625 35.515625 20.015625 
Q 33.0625 21.96875 24.703125 23.78125 
L 21.578125 24.515625 
Q 13.234375 26.265625 9.515625 29.90625 
Q 5.8125 33.546875 5.8125 39.890625 
Q 5.8125 47.609375 11.28125 51.796875 
Q 16.75 56 26.8125 56 
Q 31.78125 56 36.171875 55.265625 
Q 40.578125 54.546875 44.28125 53.078125 
z
" id="DejaVuSans-115"/>
     </defs>
     <g transform="translate(523.88125 348.676562)scale(0.1 -0.1)">
      <use xlink:href="#DejaVuSans-35"/>
      <use x="83.789062" xlink:href="#DejaVuSans-32"/>
      <use x="115.576172" xlink:href="#DejaVuSans-111"/>
      <use x="176.757812" xlink:href="#DejaVuSans-102"/>
      <use x="211.962891" xlink:href="#DejaVuSans-32"/>
      <use x="243.75" xlink:href="#DejaVuSans-102"/>
      <use x="278.955078" xlink:href="#DejaVuSans-114"/>
      <use x="320.068359" xlink:href="#DejaVuSans-97"/>
      <use x="381.347656" xlink:href="#DejaVuSans-109"/>
      <use x="478.759766" xlink:href="#DejaVuSans-101"/>
      <use x="540.283203" xlink:href="#DejaVuSans-115"/>
     </g>
    </g>
   </g>
   <g id="matplotlib.axis_4">
    <g id="ytick_6">
     <g id="line2d_25">
      <g>
       <use style="stroke:#000000;stroke-width:0.8;" x="135" xlink:href="#m5883d7e5ea" y="303.715579"/>
      </g>
     </g>
     <g id="text_25">
      <!-- 500 -->
      <g transform="translate(108.9125 307.514797)scale(0.1 -0.1)">
       <use xlink:href="#DejaVuSans-53"/>
       <use x="63.623047" xlink:href="#DejaVuSans-48"/>
       <use x="127.246094" xlink:href="#DejaVuSans-48"/>
      </g>
     </g>
    </g>
    <g id="ytick_7">
     <g id="line2d_26">
      <g>
       <use style="stroke:#000000;stroke-width:0.8;" x="135" xlink:href="#m5883d7e5ea" y="277.930186"/>
      </g>
     </g>
     <g id="text_26">
      <!-- 750 -->
      <g transform="translate(108.9125 281.729405)scale(0.1 -0.1)">
       <use xlink:href="#DejaVuSans-55"/>
       <use x="63.623047" xlink:href="#DejaVuSans-53"/>
       <use x="127.246094" xlink:href="#DejaVuSans-48"/>
      </g>
     </g>
    </g>
    <g id="ytick_8">
     <g id="line2d_27">
      <g>
       <use style="stroke:#000000;stroke-width:0.8;" x="135" xlink:href="#m5883d7e5ea" y="252.144794"/>
      </g>
     </g>
     <g id="text_27">
      <!-- 1000 -->
      <defs>
       <path d="M 12.40625 8.296875 
L 28.515625 8.296875 
L 28.515625 63.921875 
L 10.984375 60.40625 
L 10.984375 69.390625 
L 28.421875 72.90625 
L 38.28125 72.90625 
L 38.28125 8.296875 
L 54.390625 8.296875 
L 54.390625 0 
L 12.40625 0 
z
" id="DejaVuSans-49"/>
      </defs>
      <g transform="translate(102.55 255.944013)scale(0.1 -0.1)">
       <use xlink:href="#DejaVuSans-49"/>
       <use x="63.623047" xlink:href="#DejaVuSans-48"/>
       <use x="127.246094" xlink:href="#DejaVuSans-48"/>
       <use x="190.869141" xlink:href="#DejaVuSans-48"/>
      </g>
     </g>
    </g>
    <g id="ytick_9">
     <g id="line2d_28">
      <g>
       <use style="stroke:#000000;stroke-width:0.8;" x="135" xlink:href="#m5883d7e5ea" y="226.359402"/>
      </g>
     </g>
     <g id="text_28">
      <!-- 1250 -->
      <g transform="translate(102.55 230.158621)scale(0.1 -0.1)">
       <use xlink:href="#DejaVuSans-49"/>
       <use x="63.623047" xlink:href="#DejaVuSans-50"/>
       <use x="127.246094" xlink:href="#DejaVuSans-53"/>
       <use x="190.869141" xlink:href="#DejaVuSans-48"/>
      </g>
     </g>
    </g>
    <g id="ytick_10">
     <g id="line2d_29">
      <g>
       <use style="stroke:#000000;stroke-width:0.8;" x="135" xlink:href="#m5883d7e5ea" y="200.57401"/>
      </g>
     </g>
     <g id="text_29">
      <!-- 1500 -->
      <g transform="translate(102.55 204.373228)scale(0.1 -0.1)">
       <use xlink:href="#DejaVuSans-49"/>
       <use x="63.623047" xlink:href="#DejaVuSans-53"/>
       <use x="127.246094" xlink:href="#DejaVuSans-48"/>
       <use x="190.869141" xlink:href="#DejaVuSans-48"/>
      </g>
     </g>
    </g>
    <g id="text_30">
     <!-- ΔF/F -->
     <defs>
      <path d="M 34.1875 63.1875 
L 14.15625 8.203125 
L 54.25 8.203125 
z
M 0.78125 0 
L 28.609375 72.90625 
L 39.796875 72.90625 
L 67.578125 0 
z
" id="DejaVuSans-916"/>
      <path d="M 9.8125 72.90625 
L 51.703125 72.90625 
L 51.703125 64.59375 
L 19.671875 64.59375 
L 19.671875 43.109375 
L 48.578125 43.109375 
L 48.578125 34.8125 
L 19.671875 34.8125 
L 19.671875 0 
L 9.8125 0 
z
" id="DejaVuSans-70"/>
      <path d="M 25.390625 72.90625 
L 33.6875 72.90625 
L 8.296875 -9.28125 
L 0 -9.28125 
z
" id="DejaVuSans-47"/>
     </defs>
     <g transform="translate(96.470312 268.25625)rotate(-90)scale(0.1 -0.1)">
      <use xlink:href="#DejaVuSans-916"/>
      <use x="68.408203" xlink:href="#DejaVuSans-70"/>
      <use x="125.927734" xlink:href="#DejaVuSans-47"/>
      <use x="159.619141" xlink:href="#DejaVuSans-70"/>
     </g>
    </g>
   </g>
   <g id="line2d_30">
    <path clip-path="url(#p985f8202d3)" d="M 173.045455 309.344553 
L 174.952495 309.923506 
L 176.859535 297.171188 
L 178.766576 272.541316 
L 180.673616 272.073572 
L 182.580656 268.963077 
L 184.487697 272.91924 
L 186.394737 280.557646 
L 188.301777 285.657394 
L 190.208817 288.173648 
L 194.022898 296.564231 
L 195.929938 297.562993 
L 197.836979 305.506382 
L 199.744019 301.34839 
L 201.651059 305.902326 
L 203.5581 306.186673 
L 205.46514 306.879121 
L 207.37218 308.233172 
L 209.279221 306.396558 
L 211.186261 307.659311 
L 213.093301 306.029427 
L 215.000342 308.75396 
L 216.907382 308.866724 
L 218.814422 309.790915 
L 220.721463 308.066898 
L 222.628503 310.355103 
L 224.535543 310.472503 
L 226.442584 308.269077 
L 228.349624 312.357314 
L 230.256664 312.318995 
L 232.163705 311.586696 
L 234.070745 309.386876 
L 235.977785 312.472813 
L 237.884826 312.5422 
L 239.791866 312.427645 
L 241.698906 312.152879 
L 243.605947 314.672727 
L 245.512987 311.486403 
L 247.420027 301.105129 
L 249.327068 270.660179 
L 251.234108 274.786263 
L 253.141148 281.601589 
L 255.048189 289.31992 
L 256.955229 290.5193 
L 258.862269 292.732752 
L 260.76931 301.206023 
L 262.67635 301.280987 
L 264.58339 300.291856 
L 266.490431 301.085034 
L 268.397471 304.359716 
L 270.304511 304.35581 
L 272.211552 305.525702 
L 274.118592 308.794703 
L 276.025632 308.414752 
L 277.932673 308.879384 
L 279.839713 312.490223 
L 281.746753 309.74457 
L 283.653794 305.495696 
L 287.467874 312.408318 
L 289.374915 311.221901 
L 291.281955 311.191249 
L 293.188995 309.711312 
L 295.096036 311.271687 
L 297.003076 311.231177 
L 298.910116 308.972003 
L 300.817157 271.222635 
L 302.724197 244.917217 
L 304.631237 229.434524 
L 306.538278 223.989891 
L 308.445318 226.20654 
L 310.352358 236.137605 
L 312.259398 248.585856 
L 314.166439 256.265647 
L 317.980519 274.299558 
L 319.88756 275.537691 
L 321.7946 281.190616 
L 323.70164 284.746092 
L 325.608681 285.269328 
L 327.515721 288.873171 
L 329.422761 293.675196 
L 331.329802 295.786394 
L 333.236842 296.201466 
L 335.143882 300.104239 
L 337.050923 299.381297 
L 338.957963 301.414182 
L 340.865003 299.263456 
L 342.772044 303.028489 
L 344.679084 300.348936 
L 346.586124 273.984058 
L 348.493165 253.207157 
L 350.400205 245.435506 
L 352.307245 251.120108 
L 354.214286 255.85288 
L 356.121326 264.584175 
L 358.028366 272.003695 
L 359.935407 279.94083 
L 361.842447 282.755907 
L 363.749487 267.525497 
L 365.656528 248.02413 
L 367.563568 255.863349 
L 369.470608 268.345795 
L 371.377649 272.037198 
L 373.284689 281.017912 
L 375.191729 281.236949 
L 377.09877 286.962087 
L 379.00581 288.817565 
L 380.91285 295.627911 
L 382.819891 297.203344 
L 384.726931 299.384117 
L 386.633971 299.485956 
L 388.541012 302.524594 
L 390.448052 301.584991 
L 392.355092 299.863842 
L 394.262133 304.438571 
L 396.169173 303.520995 
L 398.076213 301.4306 
L 399.983254 304.975471 
L 401.890294 303.752245 
L 403.797334 307.943813 
L 405.704375 307.358049 
L 407.611415 308.562049 
L 409.518455 306.566127 
L 411.425496 307.421247 
L 413.332536 306.547043 
L 415.239576 308.575288 
L 417.146617 308.059986 
L 419.053657 308.278394 
L 420.960697 308.953938 
L 422.867738 311.739869 
L 424.774778 310.85258 
L 426.681818 310.232308 
L 428.588859 308.24422 
L 430.495899 310.65974 
L 432.402939 311.436594 
L 434.309979 309.544579 
L 436.21702 310.246699 
L 438.12406 311.072709 
L 440.0311 285.463279 
L 441.938141 271.307621 
L 443.845181 279.739319 
L 445.752221 287.301351 
L 447.659262 291.265823 
L 449.566302 299.075404 
L 451.473342 301.012796 
L 453.380383 300.205101 
L 455.287423 304.370251 
L 457.194463 305.19737 
L 459.101504 305.706565 
L 461.008544 306.511572 
L 462.915584 307.03789 
L 464.822625 304.358636 
L 466.729665 307.825654 
L 468.636705 308.779755 
L 470.543746 308.645279 
L 472.450786 301.17245 
L 474.357826 298.406174 
L 476.264867 302.523196 
L 478.171907 302.255317 
L 480.078947 298.861403 
L 481.985988 286.658208 
L 483.893028 293.430122 
L 485.800068 295.324612 
L 487.707109 300.268482 
L 489.614149 303.225061 
L 493.42823 304.818996 
L 495.33527 310.719372 
L 497.24231 308.187213 
L 499.149351 307.360318 
L 502.963431 310.327001 
L 504.870472 310.508755 
L 506.777512 311.496034 
L 508.684552 313.019787 
L 510.591593 310.638018 
L 512.498633 311.340847 
L 514.405673 311.011778 
L 516.312714 311.432553 
L 518.219754 303.700794 
L 520.126794 294.554789 
L 522.033835 289.065334 
L 523.940875 289.925059 
L 525.847915 289.394053 
L 527.754956 292.070685 
L 529.661996 295.173003 
L 531.569036 299.592679 
L 533.476077 300.546827 
L 535.383117 303.203557 
L 537.290157 305.00453 
L 539.197198 304.928273 
L 541.104238 308.465306 
L 543.011278 306.45069 
L 546.825359 307.487281 
L 548.732399 310.078193 
L 550.63944 307.411782 
L 552.54648 310.010145 
L 554.45352 309.449514 
L 556.36056 310.005417 
L 558.267601 311.006817 
L 560.174641 310.977031 
L 562.081681 306.727729 
L 563.988722 310.076198 
L 565.895762 311.158737 
L 567.802802 311.761408 
L 569.709843 309.492001 
L 571.616883 310.08684 
L 573.523923 310.245676 
L 575.430964 313.516772 
L 577.338004 311.673611 
L 579.245044 309.112403 
L 581.152085 311.240226 
L 583.059125 310.136343 
L 584.966165 314.074973 
L 586.873206 309.760374 
L 590.687286 311.411933 
L 592.594327 312.489789 
L 594.501367 312.636644 
L 596.408407 309.63382 
L 598.315448 310.403885 
L 600.222488 303.420029 
L 602.129528 258.682398 
L 605.943609 225.778387 
L 607.850649 214.461017 
L 609.75769 207.1619 
L 611.66473 207.282278 
L 613.57177 222.072958 
L 615.478811 228.17041 
L 617.385851 243.567475 
L 619.292891 237.762249 
L 621.199932 216.102998 
L 623.106972 220.566766 
L 625.014012 220.832993 
L 626.921053 232.499183 
L 628.828093 223.738496 
L 630.735133 216.863428 
L 632.642174 200.127273 
L 634.549214 204.435926 
L 636.456254 213.623773 
L 638.363295 227.987042 
L 640.270335 221.41747 
L 642.177375 216.171855 
L 644.084416 227.844039 
L 645.991456 234.4765 
L 647.898496 244.856707 
L 651.712577 263.886993 
L 653.619617 267.791139 
L 655.526658 272.666624 
L 659.340738 280.816111 
L 661.247779 286.455154 
L 663.154819 287.219651 
L 665.061859 291.079962 
L 666.9689 290.094691 
L 668.87594 291.623174 
L 670.78298 294.696458 
L 672.690021 295.894818 
L 674.597061 293.830066 
L 676.504101 295.952394 
L 678.411141 290.464185 
L 680.318182 275.959077 
L 682.225222 276.885519 
L 684.132262 284.676611 
L 686.039303 287.600288 
L 689.853383 298.398065 
L 691.760424 297.829704 
L 693.667464 300.307399 
L 695.574504 300.143666 
L 697.481545 304.057166 
L 699.388585 288.968198 
L 701.295625 267.288877 
L 703.202666 260.174029 
L 705.109706 237.61771 
L 707.016746 241.06045 
L 708.923787 253.027799 
L 710.830827 262.151006 
L 714.644908 276.666721 
L 716.551948 279.737745 
L 718.458988 286.001518 
L 720.366029 291.700769 
L 722.273069 283.355972 
L 724.180109 276.701653 
L 726.08715 284.680325 
L 727.99419 286.561846 
L 729.90123 285.494604 
L 731.808271 287.869398 
L 733.715311 289.096306 
L 735.622351 288.680359 
L 737.529392 285.908606 
L 739.436432 294.501198 
L 741.343472 296.382845 
L 743.250513 288.09128 
L 745.157553 287.87247 
L 747.064593 290.019764 
L 748.971634 296.531653 
L 750.878674 297.732744 
L 752.785714 301.835662 
L 754.692755 303.218536 
L 756.599795 302.003696 
L 758.506835 301.076139 
L 760.413876 308.380377 
L 762.320916 307.123182 
L 764.227956 305.084908 
L 766.134997 307.322455 
L 768.042037 308.02737 
L 769.949077 305.554122 
L 771.856118 307.955422 
L 773.763158 306.128408 
L 775.670198 306.055575 
L 777.577239 297.314708 
L 779.484279 300.433204 
L 781.391319 301.725288 
L 783.29836 302.05645 
L 785.2054 304.84335 
L 787.11244 306.869089 
L 789.019481 294.971177 
L 790.926521 268.829108 
L 792.833561 238.226499 
L 794.740602 246.797523 
L 796.647642 254.525121 
L 798.554682 267.797503 
L 800.461722 264.642286 
L 802.368763 270.212674 
L 804.275803 275.027649 
L 806.182843 280.609009 
L 808.089884 281.705581 
L 809.996924 284.655484 
L 811.903964 291.469727 
L 813.811005 290.099626 
L 815.718045 295.410687 
L 817.625085 297.282797 
L 819.532126 296.991156 
L 821.439166 297.024043 
L 823.346206 299.548065 
L 825.253247 294.845284 
L 827.160287 297.433965 
L 829.067327 300.484542 
L 830.974368 301.878917 
L 832.881408 301.914101 
L 834.788448 303.83048 
L 836.695489 304.655943 
L 838.602529 306.336132 
L 840.509569 302.206441 
L 842.41661 306.687112 
L 844.32365 306.814783 
L 848.137731 308.502899 
L 850.044771 309.813959 
L 851.951811 309.050479 
L 853.858852 309.07251 
L 855.765892 307.547634 
L 857.672932 309.240653 
L 859.579973 308.093584 
L 861.487013 308.361787 
L 863.394053 310.837465 
L 865.301094 310.189808 
L 867.208134 313.511629 
L 869.115174 309.664595 
L 871.022215 310.001706 
L 872.929255 306.569979 
L 874.836295 305.943012 
L 876.743336 310.328235 
L 878.650376 306.935737 
L 880.557416 310.009238 
L 882.464457 304.846724 
L 884.371497 304.44028 
L 888.185578 306.254606 
L 890.092618 309.698986 
L 891.999658 309.58049 
L 893.906699 307.439103 
L 895.813739 311.119279 
L 897.720779 309.799943 
L 899.62782 310.480615 
L 901.53486 310.108779 
L 903.4419 310.668802 
L 905.348941 310.297023 
L 907.255981 310.307442 
L 909.163021 302.08899 
L 911.070062 287.563146 
L 912.977102 290.649807 
L 914.884142 296.817489 
L 916.791183 300.407538 
L 918.698223 304.674372 
L 920.605263 306.531147 
L 922.512303 311.520825 
L 924.419344 304.969969 
L 926.326384 307.016162 
L 928.233424 310.008933 
L 930.140465 309.346457 
L 932.047505 310.488437 
L 933.954545 308.25818 
L 933.954545 308.25818 
" style="fill:none;stroke:#32cd32;stroke-linecap:square;"/>
   </g>
   <g id="patch_8">
    <path d="M 135 320.4 
L 135 194.4 
" style="fill:none;stroke:#000000;stroke-linecap:square;stroke-linejoin:miter;stroke-width:0.8;"/>
   </g>
   <g id="patch_9">
    <path d="M 972 320.4 
L 972 194.4 
" style="fill:none;stroke:#000000;stroke-linecap:square;stroke-linejoin:miter;stroke-width:0.8;"/>
   </g>
   <g id="patch_10">
    <path d="M 135 320.4 
L 972 320.4 
" style="fill:none;stroke:#000000;stroke-linecap:square;stroke-linejoin:miter;stroke-width:0.8;"/>
   </g>
   <g id="patch_11">
    <path d="M 135 194.4 
L 972 194.4 
" style="fill:none;stroke:#000000;stroke-linecap:square;stroke-linejoin:miter;stroke-width:0.8;"/>
   </g>
  </g>
 </g>
 <defs>
  <clipPath id="p4484f73ffe">
   <rect height="126" width="837" x="135" y="43.2"/>
  </clipPath>
  <clipPath id="p985f8202d3">
   <rect height="126" width="837" x="135" y="194.4"/>
  </clipPath>
 </defs>
</svg>
